<?xml version="1.0" standalone="no"?>
<!DOCTYPE svg PUBLIC "-//W3C//DTD SVG 20010904//EN"
 "http://www.w3.org/TR/2001/REC-SVG-20010904/DTD/svg10.dtd">
<svg version="1.0" xmlns="http://www.w3.org/2000/svg"
 width="700.000000pt" height="700.000000pt" viewBox="0 0 700.000000 700.000000"
 preserveAspectRatio="xMidYMid meet">
<metadata>
Created by potrace 1.14, written by Peter Selinger 2001-2017
</metadata>
<g transform="translate(0.000000,700.000000) scale(0.100000,-0.100000)"
fill="#000000" stroke="none">
<path d="M0 3500 l0 -3500 3500 0 3500 0 0 3500 0 3500 -3500 0 -3500 0 0
-3500z m6798 -7 l-3 -3308 -2 3303 -3 3302 -3270 0 -3270 0 -3 -3302 -2 -3303
-3 3308 -2 3307 3280 0 3280 0 -2 -3307z m-4570 2720 l-67 -4 -71 -95 c-40
-52 -77 -97 -83 -101 -9 -6 104 146 141 190 12 13 29 17 81 15 l66 -2 -67 -3z
m180 -10 c-16 -2 -40 -2 -55 0 -16 2 -3 4 27 4 30 0 43 -2 28 -4z m140 -10
c-15 -2 -42 -2 -60 0 -18 2 -6 4 27 4 33 0 48 -2 33 -4z m140 -10 c-15 -2 -42
-2 -60 0 -18 2 -6 4 27 4 33 0 48 -2 33 -4z m140 -10 c-15 -2 -42 -2 -60 0
-18 2 -6 4 27 4 33 0 48 -2 33 -4z m130 -10 c-16 -2 -40 -2 -55 0 -16 2 -3 4
27 4 30 0 43 -2 28 -4z m125 -10 c-13 -2 -35 -2 -50 0 -16 2 -5 4 22 4 28 0
40 -2 28 -4z m125 -10 c-16 -2 -40 -2 -55 0 -16 2 -3 4 27 4 30 0 43 -2 28 -4z
m125 -10 c-13 -2 -35 -2 -50 0 -16 2 -5 4 22 4 28 0 40 -2 28 -4z m130 -10
c-13 -2 -35 -2 -50 0 -16 2 -5 4 22 4 28 0 40 -2 28 -4z m125 -10 c-16 -2 -40
-2 -55 0 -16 2 -3 4 27 4 30 0 43 -2 28 -4z m120 -10 c-16 -2 -40 -2 -55 0
-16 2 -3 4 27 4 30 0 43 -2 28 -4z m125 -10 c-13 -2 -35 -2 -50 0 -16 2 -5 4
22 4 28 0 40 -2 28 -4z m120 -10 c-13 -2 -35 -2 -50 0 -16 2 -5 4 22 4 28 0
40 -2 28 -4z m120 -10 c-13 -2 -35 -2 -50 0 -16 2 -5 4 22 4 28 0 40 -2 28 -4z
m120 -10 c-13 -2 -35 -2 -50 0 -16 2 -5 4 22 4 28 0 40 -2 28 -4z m125 -10
c-16 -2 -40 -2 -55 0 -16 2 -3 4 27 4 30 0 43 -2 28 -4z m125 -10 c-13 -2 -35
-2 -50 0 -16 2 -5 4 22 4 28 0 40 -2 28 -4z m120 -10 c-13 -2 -35 -2 -50 0
-16 2 -5 4 22 4 28 0 40 -2 28 -4z m115 -10 c-16 -2 -40 -2 -55 0 -16 2 -3 4
27 4 30 0 43 -2 28 -4z m125 -10 c-13 -2 -35 -2 -50 0 -16 2 -5 4 22 4 28 0
40 -2 28 -4z m125 -10 c-16 -2 -40 -2 -55 0 -16 2 -3 4 27 4 30 0 43 -2 28 -4z
m-3007 -108 c-45 -58 -117 -152 -162 -210 -44 -58 -82 -105 -85 -105 -3 0 30
46 73 103 44 56 116 150 162 210 45 59 84 107 87 107 3 0 -31 -47 -75 -105z
m3132 98 c-13 -2 -35 -2 -50 0 -16 2 -5 4 22 4 28 0 40 -2 28 -4z m115 -10
c-16 -2 -40 -2 -55 0 -16 2 -3 4 27 4 30 0 43 -2 28 -4z m125 -10 c-13 -2 -35
-2 -50 0 -16 2 -5 4 22 4 28 0 40 -2 28 -4z m135 -2200 l2 -2193 -742 2 -743
3 738 2 737 3 0 2184 0 2185 -40 4 -40 4 42 -1 43 -1 3 -2192z m-3788 1757
c-17 -22 -34 -40 -37 -40 -2 0 10 18 27 40 17 22 34 40 37 40 2 0 -10 -18 -27
-40z m-48 -62 c-9 -9 -12 -121 -12 -442 l0 -429 25 23 c14 13 25 19 25 14 0
-5 -9 -15 -20 -22 -19 -11 -20 -23 -20 -179 l0 -167 48 44 c41 39 40 38 -5 -8
l-53 -54 0 -914 c0 -503 3 -913 8 -912 8 3 82 -41 82 -48 0 -6 -14 2 -53 29
l-28 19 3 -125 c2 -69 0 -123 -4 -120 -5 2 -8 -30 -8 -71 l0 -75 78 -57 c42
-31 82 -61 87 -67 21 -20 -33 15 -100 65 l-70 53 -3 1714 c-2 1675 -1 1741 26
1741 3 0 1 -5 -6 -12z m712 -315 l-81 -4 -143 -126 c-79 -69 -140 -120 -136
-114 4 6 69 66 144 131 l136 120 81 -2 80 -2 -81 -3z m234 -10 c-21 -2 -55 -2
-75 0 -21 2 -4 4 37 4 41 0 58 -2 38 -4z m180 -10 c-21 -2 -55 -2 -75 0 -21 2
-4 4 37 4 41 0 58 -2 38 -4z m150 -10 c-15 -2 -42 -2 -60 0 -18 2 -6 4 27 4
33 0 48 -2 33 -4z m189 -10 c-20 -2 -52 -2 -70 0 -17 2 0 4 38 4 39 0 53 -2
32 -4z m170 -10 c-20 -2 -52 -2 -70 0 -17 2 0 4 38 4 39 0 53 -2 32 -4z m166
-10 c-18 -2 -48 -2 -65 0 -18 2 -4 4 32 4 36 0 50 -2 33 -4z m184 -10 c-20 -2
-52 -2 -70 0 -17 2 0 4 38 4 39 0 53 -2 32 -4z m170 -10 c-20 -2 -52 -2 -70 0
-17 2 0 4 38 4 39 0 53 -2 32 -4z m191 -10 c-21 -2 -57 -2 -80 0 -24 2 -7 4
37 4 44 0 63 -2 43 -4z m170 -10 c-15 -2 -42 -2 -60 0 -18 2 -6 4 27 4 33 0
48 -2 33 -4z m169 -10 c-20 -2 -52 -2 -70 0 -17 2 0 4 38 4 39 0 53 -2 32 -4z
m166 -10 c-18 -2 -48 -2 -65 0 -18 2 -4 4 32 4 36 0 50 -2 33 -4z m184 -10
c-20 -2 -52 -2 -70 0 -17 2 0 4 38 4 39 0 53 -2 32 -4z m170 -10 c-20 -2 -52
-2 -70 0 -17 2 0 4 38 4 39 0 53 -2 32 -4z m180 -10 c-20 -2 -52 -2 -70 0 -17
2 0 4 38 4 39 0 53 -2 32 -4z m170 -10 c-20 -2 -52 -2 -70 0 -17 2 0 4 38 4
39 0 53 -2 32 -4z m170 -10 c-20 -2 -52 -2 -70 0 -17 2 0 4 38 4 39 0 53 -2
32 -4z m93 -153 l0 -150 -77 2 -78 2 73 3 72 4 0 144 c0 80 2 145 5 145 3 0 5
-67 5 -150z m-3480 67 c0 -4 -179 -162 -265 -236 -78 -67 14 21 130 123 128
114 135 119 135 113z m327 -63 c-3 -3 -12 -4 -19 -1 -8 3 -5 6 6 6 11 1 17 -2
13 -5z m-37 -8 c0 -2 -96 -88 -212 -191 -117 -103 -197 -172 -178 -152 32 33
382 346 388 347 1 0 2 -2 2 -4z m208 -3 c-21 -2 -57 -2 -80 0 -24 2 -7 4 37 4
44 0 63 -2 43 -4z m225 -10 c-24 -2 -62 -2 -85 0 -24 2 -5 4 42 4 47 0 66 -2
43 -4z m205 -10 c-21 -2 -55 -2 -75 0 -21 2 -4 4 37 4 41 0 58 -2 38 -4z m215
-10 c-23 -2 -64 -2 -90 0 -26 2 -7 3 42 3 50 0 71 -1 48 -3z m225 -10 c-21 -2
-57 -2 -80 0 -24 2 -7 4 37 4 44 0 63 -2 43 -4z m195 -10 c-24 -2 -62 -2 -85
0 -24 2 -5 4 42 4 47 0 66 -2 43 -4z m204 -10 c-20 -2 -52 -2 -70 0 -17 2 0 4
38 4 39 0 53 -2 32 -4z m211 -10 c-21 -2 -57 -2 -80 0 -24 2 -7 4 37 4 44 0
63 -2 43 -4z m230 -10 c-21 -2 -57 -2 -80 0 -24 2 -7 4 37 4 44 0 63 -2 43 -4z
m190 -10 c-21 -2 -57 -2 -80 0 -24 2 -7 4 37 4 44 0 63 -2 43 -4z m215 -10
c-24 -2 -62 -2 -85 0 -24 2 -5 4 42 4 47 0 66 -2 43 -4z m200 -10 c-24 -2 -62
-2 -85 0 -24 2 -5 4 42 4 47 0 66 -2 43 -4z m210 -10 c-24 -2 -62 -2 -85 0
-24 2 -5 4 42 4 47 0 66 -2 43 -4z m215 -10 c-21 -2 -57 -2 -80 0 -24 2 -7 4
37 4 44 0 63 -2 43 -4z m-1228 -194 c-14 -6 -34 -18 -45 -27 -12 -9 -8 -5 7
11 16 15 36 27 46 26 12 0 9 -3 -8 -10z m333 4 c-35 -2 -91 -2 -125 0 -35 2
-7 3 62 3 69 0 97 -1 63 -3z m260 -10 c-29 -2 -78 -2 -110 0 -32 2 -8 3 52 3
61 0 87 -1 58 -3z m305 -10 c-26 -2 -71 -2 -100 0 -29 2 -8 3 47 3 55 0 79 -1
53 -3z m-2300 -10 c-6 -18 25 -70 50 -86 15 -9 22 -17 16 -17 -6 0 -23 11 -38
25 l-26 24 0 -724 0 -724 33 -4 c32 -4 32 -4 -5 -5 l-38 -2 -2 756 c-2 416 -1
758 1 760 7 6 11 5 9 -3z m2575 0 c-24 -2 -62 -2 -85 0 -24 2 -5 4 42 4 47 0
66 -2 43 -4z m89 -25 c13 -13 17 -18 8 -12 -8 6 -24 16 -35 22 -11 6 -15 12
-8 12 7 0 22 -10 35 -22z m-2462 -40 c-29 -29 -30 -29 -11 -4 11 16 21 36 21
44 0 12 3 13 11 5 9 -9 3 -20 -21 -45z m-990 -3 c-24 -25 -46 -45 -49 -45 -3
0 15 20 39 45 24 25 46 45 49 45 3 0 -15 -20 -39 -45z m1250 22 c0 -8 -3 -7
-9 2 -7 11 -10 9 -16 -8 -10 -31 -63 -61 -105 -59 -33 1 -34 1 -5 5 52 7 85
25 101 55 14 27 34 30 34 5z m182 -27 c-25 -25 -49 -40 -64 -39 -19 1 -17 3 9
10 18 5 43 23 55 39 12 17 26 30 31 30 6 0 -8 -18 -31 -40z m333 -30 c26 -7
27 -8 7 -9 -15 -1 -37 12 -56 32 l-33 32 -30 -32 c-17 -18 -39 -33 -49 -33
-13 1 -10 5 11 14 17 7 39 26 49 41 l18 27 26 -31 c15 -18 41 -36 57 -41z
m-692 1 c-2 -3 -16 8 -31 24 l-27 28 31 -24 c17 -13 30 -26 27 -28z m467 0
c17 -7 20 -10 8 -10 -10 -1 -30 11 -46 27 -15 15 -19 19 -7 10 11 -9 31 -21
45 -27z m-269 22 c13 -16 12 -17 -3 -4 -17 13 -22 21 -14 21 2 0 10 -8 17 -17z
m627 -25 l-1 -43 -4 38 -4 37 -26 -20 c-14 -11 -35 -20 -47 -19 -15 1 -12 3
10 10 17 5 37 16 44 24 21 25 30 17 28 -27z m1602 -11 c0 -37 -25 -84 -53 -98
-19 -10 -18 -8 5 14 32 30 43 65 34 110 -4 23 -3 28 4 17 5 -8 10 -28 10 -43z
m-2560 13 c-8 -5 -28 -9 -45 -9 -30 2 -30 2 5 9 51 11 57 11 40 0z m381 -8
c-7 -2 -18 1 -23 6 -8 8 -4 9 13 5 13 -4 18 -8 10 -11z m847 -65 c15 -9 22
-17 15 -17 -17 0 -73 59 -73 78 0 10 7 5 15 -13 9 -17 28 -38 43 -48z m155
-24 c-24 -2 -62 -2 -85 0 -24 2 -5 4 42 4 47 0 66 -2 43 -4z m290 -10 c-29 -2
-77 -2 -105 0 -29 2 -6 3 52 3 58 0 81 -1 53 -3z m315 -10 c-32 -2 -86 -2
-120 0 -35 2 -9 3 57 3 66 0 94 -1 63 -3z m325 -10 c-29 -2 -78 -2 -110 0 -32
2 -8 3 52 3 61 0 87 -1 58 -3z m164 1 c-3 -3 -12 -4 -19 -1 -8 3 -5 6 6 6 11
1 17 -2 13 -5z m-2567 -1194 c0 -22 -4 -40 -8 -40 -4 0 -6 16 -4 35 2 20 0 35
-6 35 -6 0 -13 -17 -15 -37 l-4 -38 -1 43 c-2 36 1 42 18 42 17 0 20 -7 20
-40z m60 0 c0 -22 -4 -40 -8 -40 -4 0 -6 16 -4 35 3 21 0 35 -7 35 -6 0 -12
-17 -12 -37 -2 -32 -3 -33 -6 -10 -6 37 2 57 22 57 11 0 15 -11 15 -40z m27
-22 c-2 -13 -4 -3 -4 22 0 25 2 35 4 23 2 -13 2 -33 0 -45z m33 52 c0 -5 -2
-10 -4 -10 -3 0 -8 5 -11 10 -3 6 -1 10 4 10 6 0 11 -4 11 -10z m66 -30 c2
-34 1 -34 -3 -3 -2 18 -11 34 -21 37 -12 3 -11 4 3 3 16 -2 20 -10 21 -37z
m62 -2 l-1 -43 -4 38 c-2 20 -8 37 -14 37 -5 0 -10 -17 -10 -37 -2 -32 -3 -33
-6 -10 -6 37 2 57 22 57 11 0 15 -10 13 -42z m59 36 c-3 -3 -12 -4 -19 -1 -8
3 -5 6 6 6 11 1 17 -2 13 -5z m71 -28 c2 -16 0 -32 -5 -37 -5 -5 -7 7 -5 28 4
30 2 35 -12 30 -9 -4 -16 -2 -16 4 0 25 35 2 38 -25z m60 -8 l-1 -43 -4 38
c-2 20 -9 37 -15 37 -6 0 -8 -15 -6 -35 2 -19 0 -35 -4 -35 -10 0 -11 64 -1
73 19 20 33 5 31 -35z m66 33 c4 -5 -3 -7 -13 -4 -17 4 -20 -1 -24 -34 l-4
-38 -1 43 c-2 35 1 42 17 42 11 0 22 -4 25 -9z m62 -24 c1 -27 1 -27 -3 -1 -3
20 -9 25 -24 21 -11 -3 -16 -1 -13 4 12 20 39 4 40 -24z m62 -9 l-1 -43 -4 38
c-2 20 -8 37 -13 37 -5 0 -11 -17 -13 -37 l-4 -38 -1 43 c-2 36 1 42 18 42 17
0 20 -6 18 -42z m60 0 l-1 -43 -4 38 c-2 20 -8 37 -13 37 -5 0 -11 -17 -13
-37 l-4 -38 -1 43 c-2 36 1 42 18 42 17 0 20 -6 18 -42z m71 0 l-1 -43 -13 40
-13 40 -1 -38 c-1 -21 -5 -36 -9 -33 -7 4 -8 57 -3 74 1 1 10 2 21 2 17 0 20
-6 19 -42z m61 2 c0 -33 -3 -40 -20 -40 -14 0 -20 7 -20 24 0 13 -3 31 -6 40
-5 12 0 16 20 16 24 0 26 -4 26 -40z m59 23 c0 -11 -3 -13 -6 -5 -9 24 -22 12
-26 -25 l-4 -38 -1 43 c-2 36 1 42 18 42 13 0 20 -6 19 -17z m58 11 c-3 -3
-12 -4 -19 -1 -8 3 -5 6 6 6 11 1 17 -2 13 -5z m73 -28 c0 -19 -4 -37 -8 -40
-4 -2 -6 11 -4 30 2 20 0 34 -6 34 -6 0 -13 -17 -15 -37 l-4 -38 -1 43 c-2 36
1 42 18 42 16 0 20 -7 20 -34z m-663 -28 c-3 -7 -5 -2 -5 12 0 14 2 19 5 13 2
-7 2 -19 0 -25z m533 2 c0 -11 -4 -20 -9 -20 -5 0 -7 9 -4 20 3 11 7 20 9 20
2 0 4 -9 4 -20z m-565 -10 c-3 -5 -16 -10 -28 -9 -20 1 -20 2 3 9 14 4 26 8
28 9 2 1 0 -3 -3 -9z m-93 -349 c2 -181 0 -327 -4 -324 -5 2 -8 148 -8 324 0
203 -4 319 -10 319 -6 0 -11 -119 -12 -322 -3 -314 -4 -323 -23 -325 -16 -1
-16 -1 -2 3 16 5 17 30 17 330 0 316 0 324 20 324 19 0 20 -9 22 -329z m85
323 c-3 -3 -12 -4 -19 -1 -8 3 -5 6 6 6 11 1 17 -2 13 -5z m206 -2 c-6 -4 -13
-25 -16 -47 -4 -40 -4 -40 -5 8 -2 39 1 47 16 47 11 0 13 -3 5 -8z m217 4 c0
-2 -9 -6 -20 -9 -11 -3 -18 -1 -14 4 5 9 34 13 34 5z m80 0 c0 -2 -9 -6 -20
-9 -11 -3 -18 -1 -14 4 5 9 34 13 34 5z m220 -22 c-34 -7 -110 -9 -110 -2 0 5
28 7 63 7 34 -1 55 -3 47 -5z m-972 -11 c-10 -2 -26 -2 -35 0 -10 3 -2 5 17 5
19 0 27 -2 18 -5z m442 -115 c0 -49 -2 -54 -33 -71 l-32 -17 28 23 c22 19 27
31 27 70 0 26 2 47 5 47 3 0 5 -24 5 -52z m427 30 c-3 -8 -6 -5 -6 6 -1 11 2
17 5 13 3 -3 4 -12 1 -19z m-1261 -5 c28 -18 94 -100 94 -116 0 -6 -14 11 -31
36 -35 53 -83 92 -100 81 -8 -4 -9 -3 -5 4 9 15 12 15 42 -5z m-98 -46 c-26
-23 -54 -55 -63 -72 -10 -21 -15 -24 -15 -12 0 17 104 128 119 127 3 -1 -15
-20 -41 -43z m1355 -478 c-5 -5 -6 110 -3 254 l5 262 3 -254 c1 -140 -1 -258
-5 -262z m-389 445 c3 -8 2 -12 -4 -9 -6 3 -10 10 -10 16 0 14 7 11 14 -7z
m55 -78 c-1 -17 -2 -16 -9 7 -5 16 -12 34 -17 41 -4 6 0 3 10 -7 9 -11 17 -29
16 -41z m-272 32 c-3 -8 -6 -5 -6 6 -1 11 2 17 5 13 3 -3 4 -12 1 -19z m116
-18 c-3 -12 -8 -19 -11 -16 -5 6 5 36 12 36 2 0 2 -9 -1 -20z m-116 -62 c-2
-13 -4 -3 -4 22 0 25 2 35 4 23 2 -13 2 -33 0 -45z m-830 5 c-3 -10 -5 -4 -5
12 0 17 2 24 5 18 2 -7 2 -21 0 -30z m209 3 c19 -19 34 -39 34 -46 0 -19 -66
-80 -86 -80 -13 1 -8 6 13 15 43 18 68 57 54 84 -17 31 -52 51 -92 51 -38 0
-61 -17 -78 -60 -6 -16 -10 -19 -10 -8 -1 9 11 30 25 47 21 25 33 31 66 31 32
0 47 -7 74 -34z m81 -18 c-2 -13 -4 -5 -4 17 -1 22 1 32 4 23 2 -10 2 -28 0
-40z m650 0 c-3 -7 -5 -2 -5 12 0 14 2 19 5 13 2 -7 2 -19 0 -25z m160 0 c-3
-7 -5 -2 -5 12 0 14 2 19 5 13 2 -7 2 -19 0 -25z m-1090 -40 c-3 -8 -6 -5 -6
6 -1 11 2 17 5 13 3 -3 4 -12 1 -19z m820 -30 c-2 -13 -4 -5 -4 17 -1 22 1 32
4 23 2 -10 2 -28 0 -40z m182 -18 c0 -12 -2 -12 -6 -1 -3 7 -20 27 -37 43
l-31 30 37 -29 c21 -15 38 -35 37 -43z m58 42 c-15 -15 -27 -35 -28 -43 0 -11
-2 -11 -6 -1 -5 12 42 72 56 72 2 0 -7 -13 -22 -28z m-807 -42 c-23 -46 -96
-130 -113 -130 -32 0 -137 119 -137 154 0 6 14 -12 30 -41 28 -49 84 -103 108
-103 18 0 90 89 109 135 10 25 19 41 21 36 2 -5 -6 -28 -18 -51z m-157 -19
c-4 -6 -53 41 -53 50 0 4 13 -4 28 -19 15 -15 26 -29 25 -31z m724 -28 c-3
-10 -5 -4 -5 12 0 17 2 24 5 18 2 -7 2 -21 0 -30z m210 -10 c-3 -10 -5 -4 -5
12 0 17 2 24 5 18 2 -7 2 -21 0 -30z m-30 -75 c-2 -18 -4 -4 -4 32 0 36 2 50
4 33 2 -18 2 -48 0 -65z m-180 40 c-3 -8 -6 -5 -6 6 -1 11 2 17 5 13 3 -3 4
-12 1 -19z m0 -40 c-3 -8 -6 -5 -6 6 -1 11 2 17 5 13 3 -3 4 -12 1 -19z
m-1152 -123 l20 -16 -20 10 c-11 5 -29 17 -40 26 l-20 16 20 -10 c11 -5 29
-17 40 -26z m1132 29 c-3 -3 -12 -4 -19 -1 -8 3 -5 6 6 6 11 1 17 -2 13 -5z
m40 0 c-3 -3 -12 -4 -19 -1 -8 3 -5 6 6 6 11 1 17 -2 13 -5z m40 0 c-3 -3 -12
-4 -19 -1 -8 3 -5 6 6 6 11 1 17 -2 13 -5z m40 0 c-3 -3 -12 -4 -19 -1 -8 3
-5 6 6 6 11 1 17 -2 13 -5z m440 0 c-3 -3 -12 -4 -19 -1 -8 3 -5 6 6 6 11 1
17 -2 13 -5z m40 0 c-3 -3 -12 -4 -19 -1 -8 3 -5 6 6 6 11 1 17 -2 13 -5z m23
-21 c0 -7 -311 -7 -680 0 -80 1 41 4 268 5 226 1 412 -1 412 -5z m-1675 -58
l20 -16 -20 10 c-11 5 -29 17 -40 26 l-20 16 20 -10 c11 -5 29 -17 40 -26z
m1271 7 c-226 -1 -413 1 -417 5 -5 5 180 6 409 3 l417 -5 -409 -3z m202 -19
c-115 -2 -301 -2 -415 0 -115 1 -21 2 207 2 228 0 322 -1 208 -2z m-1393 -38
l20 -16 -20 10 c-11 5 -29 17 -40 26 l-20 16 20 -10 c11 -5 29 -17 40 -26z
m1393 -12 c-115 -2 -301 -2 -415 0 -115 1 -21 2 207 2 228 0 322 -1 208 -2z
m-1313 -38 l20 -16 -20 10 c-11 5 -29 17 -40 26 l-20 16 20 -10 c11 -5 29 -17
40 -26z m865 -25 l0 -50 -100 0 c-55 0 -100 3 -99 8 0 4 5 16 10 27 9 19 9 18
5 -2 -4 -22 -2 -23 86 -23 l90 0 -4 45 c-2 25 0 45 4 45 5 0 8 -22 8 -50z m22
25 c-2 -14 -6 -25 -8 -25 -2 0 -4 11 -4 25 0 14 4 25 9 25 4 0 6 -11 3 -25z
m470 -20 l-4 -44 94 -4 93 -3 -97 -2 -98 -2 0 50 c0 28 3 50 8 50 4 0 6 -20 4
-45z m-1554 -99 c83 -54 152 -100 152 -103 0 -3 -10 1 -22 9 -13 8 -92 59
-175 112 -84 54 -153 100 -153 103 0 3 10 -1 23 -9 12 -8 91 -59 175 -112z
m1731 74 c0 -9 -4 -8 -9 5 -5 11 -9 27 -9 35 0 9 4 8 9 -5 5 -11 9 -27 9 -35z
m-1454 -5 l20 -16 -20 10 c-11 5 -29 17 -40 26 l-20 16 20 -10 c11 -5 29 -17
40 -26z m1026 -18 l219 -3 -222 1 c-191 0 -223 2 -224 15 0 8 1 9 3 3 3 -9 61
-13 224 -16z m-946 -32 l20 -16 -20 10 c-11 5 -29 17 -40 26 l-20 16 20 -10
c11 -5 29 -17 40 -26z m581 -35 l1 -45 -4 43 c-4 40 -5 42 -39 42 -19 0 -34
-5 -34 -12 0 -6 -3 -9 -6 -5 -14 14 11 28 44 25 36 -3 37 -4 38 -48z m102 43
l-78 -4 -2 -42 c-1 -38 -2 -39 -5 -9 -7 58 -2 62 84 60 l78 -2 -77 -3z m140 0
c-10 -2 -28 -2 -40 0 -13 2 -5 4 17 4 22 1 32 -1 23 -4z m70 0 c-10 -2 -26 -2
-35 0 -10 3 -2 5 17 5 19 0 27 -2 18 -5z m72 -40 c-4 -42 -5 -44 -8 -15 -3 30
2 62 10 62 2 0 1 -21 -2 -47z m218 40 c-38 -2 -98 -2 -135 0 -38 2 -7 3 67 3
74 0 105 -1 68 -3z m110 -49 l-3 -39 -5 47 c-3 26 -1 43 3 39 5 -5 7 -26 5
-47z m98 38 c1 -7 0 -8 -3 -2 -2 5 -20 10 -39 10 -33 0 -34 -1 -36 -42 -1 -39
-2 -40 -5 -10 -7 52 2 64 44 60 20 -2 38 -9 39 -16z m-1156 -32 l185 -6 -181
-2 c-151 -2 -183 1 -200 14 -10 8 -12 12 -4 7 8 -4 98 -10 200 -13z m1167 -12
c-3 -8 -6 -5 -6 6 -1 11 2 17 5 13 3 -3 4 -12 1 -19z m-977 -25 c-11 -17 -11
-17 -6 0 3 10 6 24 7 30 0 9 2 9 5 0 3 -7 0 -20 -6 -30z m2820 -93 l0 -130
-857 2 c-684 2 -857 6 -859 16 -1 7 0 8 3 2 3 -7 284 -10 854 -10 l849 0 0
120 0 120 -891 0 -890 0 6 -22 c5 -18 4 -20 -4 -8 -29 41 -50 40 889 40 l900
0 0 -130z m-2540 63 c0 -5 -50 -7 -111 -5 -85 3 -114 0 -120 -10 -7 -10 -9 -9
-9 5 0 15 12 17 120 17 66 0 120 -3 120 -7z m458 -35 l-1 -43 -4 38 -4 37
-209 0 -209 0 -4 -37 -4 -38 -1 43 -2 42 220 0 220 0 -2 -42z m261 20 c-1 -17
-2 -19 -6 -5 -4 15 -18 17 -118 17 l-114 0 -4 -37 -4 -38 -1 43 -2 42 125 0
c123 0 125 0 124 -22z m-1494 -86 c89 -57 148 -101 105 -77 -39 22 -230 148
-230 152 0 5 -1 6 125 -75z m1579 -2 c5 -20 3 -19 -8 5 -7 17 -16 41 -20 55
-5 20 -3 19 8 -5 7 -16 16 -41 20 -55z m-1047 48 c-3 -8 -6 -5 -6 6 -1 11 2
17 5 13 3 -3 4 -12 1 -19z m977 -4 c3 -8 2 -12 -4 -9 -6 3 -10 10 -10 16 0 14
7 11 14 -7z m-1055 -33 c-6 -18 -13 -30 -15 -28 -2 2 1 18 7 36 6 18 13 30 15
28 2 -2 -1 -18 -7 -36z m321 19 c0 -6 -48 -9 -127 -8 l-128 2 125 6 c69 3 126
7 128 8 1 1 2 -2 2 -8z m348 -7 c-53 -2 -143 -2 -200 0 -57 1 -13 3 97 3 110
0 156 -2 103 -3z m320 0 c-32 -2 -84 -2 -115 0 -32 2 -6 3 57 3 63 0 89 -1 58
-3z m-1598 -109 c0 -2 -34 18 -75 46 -41 28 -75 53 -75 56 0 2 34 -18 75 -46
41 -28 75 -53 75 -56z m700 92 c0 -2 -9 -6 -20 -9 -11 -3 -18 -1 -14 4 5 9 34
13 34 5z m78 -3 c-10 -2 -26 -2 -35 0 -10 3 -2 5 17 5 19 0 27 -2 18 -5z m450
0 c-27 -2 -69 -2 -95 0 -27 2 -5 3 47 3 52 0 74 -1 48 -3z m99 -60 c-2 -16 -4
-5 -4 22 0 28 2 40 4 28 2 -13 2 -35 0 -50z m43 20 c-4 -42 -5 -44 -8 -15 -3
30 2 62 10 62 2 0 1 -21 -2 -47z m236 -1 l1 -42 -4 40 -4 39 -77 4 -77 3 80 0
80 -1 1 -43z m31 -19 c-2 -16 -4 -5 -4 22 0 28 2 40 4 28 2 -13 2 -35 0 -50z
m72 2 c0 -5 -6 1 -14 15 -8 14 -14 30 -14 35 0 6 6 -1 14 -15 8 -14 14 -29 14
-35z m-1052 13 c-3 -8 -6 -5 -6 6 -1 11 2 17 5 13 3 -3 4 -12 1 -19z m-77 -27
c-10 -20 -18 -21 -158 -19 l-147 2 147 3 148 4 7 27 c3 15 8 22 10 15 3 -7 -1
-21 -7 -32z m427 7 c-3 -8 -6 -5 -6 6 -1 11 2 17 5 13 3 -3 4 -12 1 -19z
m-300 -10 c-3 -8 -6 -5 -6 6 -1 11 2 17 5 13 3 -3 4 -12 1 -19z m-637 -64 c0
-3 -13 4 -30 16 -16 12 -30 24 -30 26 0 3 14 -4 30 -16 17 -12 30 -24 30 -26z
m573 19 c-7 -2 -13 -12 -13 -20 0 -9 -3 -14 -6 -10 -10 10 4 37 18 36 10 0 10
-2 1 -6z m64 1 c-3 -3 -12 -4 -19 -1 -8 3 -5 6 6 6 11 1 17 -2 13 -5z m151
-19 c-3 -3 -9 2 -12 12 -6 14 -5 15 5 6 7 -7 10 -15 7 -18z m300 -17 c-2 -23
-8 -43 -16 -44 -7 -1 -8 0 -2 3 5 2 10 20 10 38 0 27 -5 34 -22 38 -19 4 -19
4 5 6 27 1 28 -1 25 -41z m153 -36 c65 2 119 -1 119 -5 0 -4 -55 -6 -122 -5
l-123 3 -1 43 -1 42 4 -41 4 -40 120 3z m119 48 c0 -16 -2 -30 -4 -30 -2 0 -6
14 -8 30 -3 17 -1 30 4 30 4 0 8 -13 8 -30z m48 23 c-13 -3 -18 -15 -18 -39
l0 -34 144 0 c106 0 146 3 149 13 3 7 6 5 6 -6 1 -16 -11 -17 -151 -15 l-153
3 -3 43 c-3 38 -1 42 20 41 17 -1 18 -3 6 -6z m262 -1 c0 -4 -17 -6 -37 -4
-59 5 -63 10 -10 11 26 1 47 -3 47 -7z m-863 -44 c-3 -7 -5 -2 -5 12 0 14 2
19 5 13 2 -7 2 -19 0 -25z m-707 -44 c0 -3 -20 9 -45 26 -25 17 -45 33 -45 36
0 3 20 -9 45 -26 25 -17 45 -33 45 -36z m687 24 c-3 -7 -5 -2 -5 12 0 14 2 19
5 13 2 -7 2 -19 0 -25z m-204 -11 c31 -4 31 -4 -5 -5 -34 -2 -38 1 -37 21 1
15 3 17 6 5 2 -10 17 -18 36 -21z m410 -4 c-13 -2 -33 -2 -45 0 -13 2 -3 4 22
4 25 0 35 -2 23 -4z m54 1 c-3 -3 -12 -4 -19 -1 -8 3 -5 6 6 6 11 1 17 -2 13
-5z m-887 -51 c0 -7 -39 17 -46 28 -3 6 5 3 20 -6 14 -10 26 -19 26 -22z m87
-29 c-3 -3 -12 -4 -19 -1 -8 3 -5 6 6 6 11 1 17 -2 13 -5z m960 0 c-3 -3 -12
-4 -19 -1 -8 3 -5 6 6 6 11 1 17 -2 13 -5z m-1064 -291 c-101 -2 -265 -2 -365
0 -101 1 -19 2 182 2 201 0 283 -1 183 -2z m1315 0 c-104 -2 -272 -2 -375 0
-104 1 -19 2 187 2 206 0 291 -1 188 -2z m1305 0 c-100 -2 -266 -2 -370 0
-103 1 -21 2 182 2 204 0 288 -1 188 -2z m-2330 -10 c-13 -2 -33 -2 -45 0 -13
2 -3 4 22 4 25 0 35 -2 23 -4z m459 -18 c3 -14 1 -25 -3 -25 -5 0 -9 11 -9 25
0 14 2 25 4 25 2 0 6 -11 8 -25z m856 18 c-10 -2 -28 -2 -40 0 -13 2 -5 4 17
4 22 1 32 -1 23 -4z m1305 0 c-13 -2 -35 -2 -50 0 -16 2 -5 4 22 4 28 0 40 -2
28 -4z m-2540 -10 c-7 -2 -21 -2 -30 0 -10 3 -4 5 12 5 17 0 24 -2 18 -5z
m1310 0 c-7 -2 -21 -2 -30 0 -10 3 -4 5 12 5 17 0 24 -2 18 -5z m1300 0 c-7
-2 -21 -2 -30 0 -10 3 -4 5 12 5 17 0 24 -2 18 -5z m-2566 -9 c-3 -3 -12 -4
-19 -1 -8 3 -5 6 6 6 11 1 17 -2 13 -5z m1310 0 c-3 -3 -12 -4 -19 -1 -8 3 -5
6 6 6 11 1 17 -2 13 -5z m1306 -1 c-7 -2 -19 -2 -25 0 -7 3 -2 5 12 5 14 0 19
-2 13 -5z m-2544 -14 c48 -17 32 -20 -19 -4 -25 7 -38 14 -29 14 9 1 30 -4 48
-10z m1278 5 c-3 -3 -12 -4 -19 -1 -8 3 -5 6 6 6 11 1 17 -2 13 -5z m-1785
-121 c-4 -211 -8 -231 -10 -55 -1 94 1 172 6 172 4 0 6 -53 4 -117z m96 110
c-16 -2 -40 -2 -55 0 -16 2 -3 4 27 4 30 0 43 -2 28 -4z m1217 -163 c0 -93 -3
-170 -7 -170 -5 0 -8 77 -8 170 0 94 3 170 8 170 4 0 7 -76 7 -170z m98 163
c-13 -2 -33 -2 -45 0 -13 2 -3 4 22 4 25 0 35 -2 23 -4z m427 -3 c18 -12 2
-12 -25 0 -13 6 -15 9 -5 9 8 0 22 -4 30 -9z m790 -323 c17 -4 16 -4 -2 -3
-23 1 -23 2 -23 169 l-1 167 3 -164 c3 -155 5 -165 23 -169z m119 324 c8 -5
-5 -7 -35 -4 -27 3 -51 7 -53 9 -9 8 75 3 88 -5z m391 -1 c18 -12 2 -12 -25 0
-13 6 -15 9 -5 9 8 0 22 -4 30 -9z m-3633 -6 c-3 -3 -12 -4 -19 -1 -8 3 -5 6
6 6 11 1 17 -2 13 -5z m1310 0 c-3 -3 -12 -4 -19 -1 -8 3 -5 6 6 6 11 1 17 -2
13 -5z m667 -16 c12 -17 16 -50 16 -139 0 -115 -1 -118 -26 -138 -15 -12 -36
-21 -48 -20 -17 1 -15 2 7 9 54 16 57 23 57 149 0 118 -6 142 -40 154 -12 4
-12 6 2 6 9 1 24 -9 32 -21z m633 16 c-3 -3 -12 -4 -19 -1 -8 3 -5 6 6 6 11 1
17 -2 13 -5z m-2562 -257 l1 -247 -3 244 c-3 222 -5 245 -21 250 -13 4 -12 4
3 3 19 -2 20 -10 20 -250z m635 108 c0 -122 0 -124 -26 -144 -15 -12 -36 -21
-48 -20 -17 1 -15 2 7 9 55 17 57 23 57 154 0 84 -4 126 -12 136 -11 12 -10
12 5 1 15 -12 17 -31 17 -136z m417 116 c49 -35 73 -68 72 -96 -1 -15 -3 -13
-9 8 -12 38 -27 55 -79 89 -25 15 -40 28 -34 28 5 0 28 -13 50 -29z m1278 19
c3 -6 -1 -7 -9 -4 -18 7 -21 14 -7 14 6 0 13 -4 16 -10z m280 -250 l0 -255
-30 -1 c-29 -2 -29 -2 -2 3 l27 4 0 249 c0 228 -1 249 -17 254 -14 4 -14 4 2
3 19 -2 20 -10 20 -257z m635 115 c0 -122 0 -124 -26 -144 -15 -12 -34 -21
-43 -21 -9 0 0 8 19 18 l35 17 3 124 c2 89 -1 128 -10 140 -12 14 -11 15 5 2
14 -11 17 -31 17 -136z m399 131 c36 -19 91 -82 91 -104 -1 -10 -6 -5 -14 13
-15 34 -47 65 -91 88 -16 9 -26 16 -22 17 4 0 21 -7 36 -14z m-2332 -369 c-1
-67 -3 -9 -3 128 0 138 2 192 3 122 2 -71 2 -183 0 -250z m1088 321 c19 -22
19 -22 -10 2 -48 40 -51 43 -30 32 11 -6 29 -21 40 -34z m35 -81 c0 -50 -36
-109 -80 -132 -17 -9 -30 -13 -30 -11 0 3 13 12 29 21 45 23 74 77 69 129 -1
24 0 42 5 39 4 -2 7 -23 7 -46z m-1324 -66 c-16 -29 -74 -81 -92 -81 -5 0 8
11 29 25 37 26 66 69 68 102 1 16 2 16 6 1 2 -9 -3 -30 -11 -47z m2593 -27
c-13 -14 -33 -31 -44 -37 -11 -5 -2 7 20 29 44 43 63 49 24 8z m-74 -54 c-3
-5 -12 -10 -18 -10 -7 0 -6 4 3 10 19 12 23 12 15 0z m-1325 -10 c-8 -5 -19
-10 -25 -10 -5 0 -3 5 5 10 8 5 20 10 25 10 6 0 3 -5 -5 -10z m-1792 -17 c-10
-2 -28 -2 -40 0 -13 2 -5 4 17 4 22 1 32 -1 23 -4z m439 1 c-3 -3 -12 -4 -19
-1 -8 3 -5 6 6 6 11 1 17 -2 13 -5z m856 -1 c-7 -2 -19 -2 -25 0 -7 3 -2 5 12
5 14 0 19 -2 13 -5z m454 1 c-3 -3 -12 -4 -19 -1 -8 3 -5 6 6 6 11 1 17 -2 13
-5z m1300 0 c-3 -3 -12 -4 -19 -1 -8 3 -5 6 6 6 11 1 17 -2 13 -5z m-2650 -10
c-3 -3 -12 -4 -19 -1 -8 3 -5 6 6 6 11 1 17 -2 13 -5z m1310 0 c-3 -3 -12 -4
-19 -1 -8 3 -5 6 6 6 11 1 17 -2 13 -5z m1300 0 c-3 -3 -12 -4 -19 -1 -8 3 -5
6 6 6 11 1 17 -2 13 -5z m-2664 -11 c-7 -2 -19 -2 -25 0 -7 3 -2 5 12 5 14 0
19 -2 13 -5z m1320 0 c-7 -2 -21 -2 -30 0 -10 3 -4 5 12 5 17 0 24 -2 18 -5z
m1300 0 c-7 -2 -21 -2 -30 0 -10 3 -4 5 12 5 17 0 24 -2 18 -5z m-2675 -10
c-10 -2 -26 -2 -35 0 -10 3 -2 5 17 5 19 0 27 -2 18 -5z m1310 0 c-10 -2 -26
-2 -35 0 -10 3 -2 5 17 5 19 0 27 -2 18 -5z m1300 0 c-10 -2 -26 -2 -35 0 -10
3 -2 5 17 5 19 0 27 -2 18 -5z m-2955 -10 c-9 -3 -13 -28 -13 -74 l0 -68 33
-10 c17 -5 24 -10 14 -10 -45 -2 -57 16 -57 88 0 68 4 82 24 80 6 0 5 -3 -1
-6z m220 0 c-35 -2 -91 -2 -125 0 -35 2 -7 3 62 3 69 0 97 -1 63 -3z m1124 0
l-49 -4 4 -74 c2 -40 0 -71 -4 -68 -5 2 -8 38 -8 79 l0 74 53 -2 52 -2 -48 -3z
m201 0 c-26 -2 -71 -2 -100 0 -29 2 -8 3 47 3 55 0 79 -1 53 -3z m1100 0 l-48
-4 0 -69 0 -69 33 -10 c17 -5 24 -10 14 -10 -45 -2 -57 16 -57 88 0 37 3 71 7
74 3 4 27 6 52 5 l46 -2 -47 -3z m200 0 c-26 -2 -71 -2 -100 0 -29 2 -8 3 47
3 55 0 79 -1 53 -3z m-3315 -160 c-7 -2 -21 -2 -30 0 -10 3 -4 5 12 5 17 0 24
-2 18 -5z m1305 0 c-10 -2 -26 -2 -35 0 -10 3 -2 5 17 5 19 0 27 -2 18 -5z
m515 0 c-7 -2 -19 -2 -25 0 -7 3 -2 5 12 5 14 0 19 -2 13 -5z m-1879 -11 c-7
-4 -14 -16 -17 -27 -4 -15 -5 -14 -6 8 -1 20 4 27 17 27 11 0 13 -3 6 -8z
m1298 -17 l-4 -25 311 -3 311 -2 -312 0 -313 0 -3 28 c-2 15 1 27 6 27 5 0 7
-11 4 -25z m628 10 c19 -22 8 -25 -12 -3 -10 10 -14 18 -9 18 5 0 14 -7 21
-15z m684 7 c-7 -4 -14 -16 -17 -27 -4 -15 -5 -14 -6 8 -1 20 4 27 17 27 11 0
13 -3 6 -8z m623 -22 c1 -21 1 -21 -3 -3 -3 12 -13 24 -22 27 -12 3 -11 4 3 3
14 -2 21 -10 22 -27z m-2610 -12 c-3 -7 -5 -2 -5 12 0 14 2 19 5 13 2 -7 2
-19 0 -25z m-164 -15 c-83 -2 -223 -2 -310 0 -87 1 -18 3 152 3 171 0 242 -2
158 -3z m2610 0 c-83 -2 -223 -2 -310 0 -87 1 -18 3 152 3 171 0 242 -2 158
-3z m-2676 -459 c-3 -3 -12 -4 -19 -1 -8 3 -5 6 6 6 11 1 17 -2 13 -5z m160 0
c-3 -3 -12 -4 -19 -1 -8 3 -5 6 6 6 11 1 17 -2 13 -5z m800 0 c-3 -3 -12 -4
-19 -1 -8 3 -5 6 6 6 11 1 17 -2 13 -5z m160 0 c-3 -3 -12 -4 -19 -1 -8 3 -5
6 6 6 11 1 17 -2 13 -5z"/>
<path d="M3390 3050 c0 -16 5 -30 10 -30 6 0 10 14 10 30 0 17 -4 30 -10 30
-5 0 -10 -13 -10 -30z"/>
</g>
</svg>
